<mxfile host="app.diagrams.net" modified="2024-03-09T04:09:12.777Z" agent="Mozilla/5.0 (Windows NT 10.0; Win64; x64) AppleWebKit/537.36 (KHTML, like Gecko) Chrome/122.0.0.0 Safari/537.36" etag="FaXNYJnv-tShNN5u_XMM" version="23.0.2" type="github">
  <diagram name="페이지-1" id="3-n-OQbZGArMyjqzdqo5">
    <mxGraphModel dx="899" dy="526" grid="1" gridSize="10" guides="1" tooltips="1" connect="1" arrows="1" fold="1" page="1" pageScale="1" pageWidth="827" pageHeight="1169" math="0" shadow="0">
      <root>
        <mxCell id="0" />
        <mxCell id="1" parent="0" />
      </root>
    </mxGraphModel>
  </diagram>
</mxfile>
